<?xml version="1.0" standalone="no"?>
<!DOCTYPE svg PUBLIC "-//W3C//DTD SVG 20010904//EN"
 "http://www.w3.org/TR/2001/REC-SVG-20010904/DTD/svg10.dtd">
<svg version="1.0" xmlns="http://www.w3.org/2000/svg"
 width="300.000000pt" height="283.000000pt" viewBox="0 0 300.000000 283.000000"
 preserveAspectRatio="xMidYMid meet">
<metadata>
Created by potrace 1.10, written by Peter Selinger 2001-2011
</metadata>
<g transform="translate(0.000000,283.000000) scale(0.100000,-0.100000)"
fill="#000000" stroke="none">
<path d="M863 1423 c-7 -2 -13 -10 -13 -18 0 -23 -27 -37 -48 -26 -25 13 -62
-12 -62 -43 0 -28 -24 -51 -44 -43 -21 8 -48 -37 -40 -69 5 -20 1 -31 -20 -50
-25 -24 -36 -74 -16 -74 6 0 10 -7 10 -15 0 -8 7 -15 15 -15 11 0 15 11 15 38
0 49 42 138 88 185 54 56 105 79 188 85 61 4 80 1 126 -20 97 -45 168 -140
184 -245 7 -48 11 -51 30 -25 20 26 17 70 -5 82 -24 12 -37 48 -22 63 13 13
-24 68 -43 61 -19 -7 -48 25 -41 46 7 23 -40 56 -59 40 -18 -15 -46 -2 -57 26
-6 18 -16 24 -39 24 -16 0 -30 -4 -30 -9 0 -17 -33 -21 -50 -6 -16 15 -43 18
-67 8z"/>
<path d="M1310 1250 l0 -180 30 0 29 0 3 143 3 142 39 -142 39 -143 38 0 c36
0 39 2 50 43 7 23 24 87 40 142 l28 100 0 -142 1 -143 30 0 29 0 3 142 3 142
40 -142 39 -142 37 0 c37 0 38 1 53 53 42 147 59 214 60 237 1 18 7 26 24 28
27 4 28 -8 2 -36 -18 -19 -20 -35 -20 -152 l0 -130 30 0 c30 0 30 0 30 60 l0
60 53 0 c112 0 157 29 164 107 4 39 0 55 -19 83 -29 43 -47 48 -184 49 l-111
1 -37 -124 c-20 -68 -36 -131 -36 -140 0 -9 -4 -16 -10 -16 -5 0 -10 7 -10 16
0 13 -21 91 -66 247 -4 14 -17 17 -74 17 l-69 0 -15 -52 c-8 -29 -25 -89 -37
-133 -23 -81 -39 -115 -39 -81 0 10 -16 74 -36 142 l-37 124 -48 0 -49 0 0
-180z m360 128 c0 -7 -7 -22 -16 -33 -15 -20 -15 -20 -34 5 -14 18 -15 27 -7
32 19 12 57 9 57 -4z m433 -28 c10 -9 12 -68 3 -77 -4 -4 -36 -10 -72 -13
l-64 -5 0 55 0 56 63 -4 c34 -2 66 -8 70 -12z"/>
<path d="M830 1331 c0 -6 -7 -11 -15 -11 -15 0 -45 -48 -45 -73 0 -8 -7 -17
-15 -21 -19 -7 -20 -26 -1 -26 7 0 19 -6 25 -14 8 -10 21 -12 47 -6 19 4 43 6
54 3 14 -4 29 4 47 23 17 18 28 24 31 16 2 -7 8 -10 13 -6 15 9 0 24 -23 24
-11 0 -31 -11 -44 -26 -17 -18 -24 -21 -24 -10 0 9 -8 16 -17 16 -15 0 -16 -2
-3 -10 8 -5 10 -10 5 -10 -6 0 -16 5 -22 11 -8 8 -17 8 -31 0 -26 -14 -32 -14
-32 -1 0 6 9 10 20 10 14 0 20 7 20 23 0 18 -2 19 -10 7 -8 -12 -10 -10 -10
10 0 31 38 60 51 38 5 -7 6 -25 3 -40 -5 -24 -2 -28 16 -28 19 0 21 4 15 28
-10 40 -28 75 -42 80 -7 2 -13 -1 -13 -7z"/>
<path d="M1018 1234 c-33 -32 -54 -45 -67 -41 -13 3 -21 -1 -24 -14 -6 -21 11
-38 22 -22 3 6 17 14 31 18 l25 7 -27 -21 c-14 -11 -32 -21 -40 -22 -7 0 -4
-5 7 -10 20 -9 20 -9 0 -7 -11 2 -26 -1 -32 -5 -16 -10 -17 5 -2 20 9 9 7 10
-10 6 -12 -3 -21 -1 -21 6 0 8 -12 6 -36 -4 -45 -19 -48 -19 -40 0 3 8 1 15
-4 15 -5 0 -8 -18 -8 -40 l0 -40 89 0 c49 0 89 4 89 9 0 5 -5 11 -11 13 -6 2
11 24 38 48 26 25 47 48 45 53 -1 4 4 6 11 5 6 -2 11 3 9 10 -4 19 50 11 55
-8 4 -13 3 -13 -6 0 -8 11 -11 1 -11 -42 0 -31 -4 -60 -10 -63 -5 -3 -10 -10
-10 -16 0 -5 5 -9 10 -9 6 0 10 7 10 15 0 8 7 15 15 15 8 0 15 6 15 12 0 7 11
0 25 -15 14 -15 31 -27 37 -27 7 0 2 9 -9 20 -12 10 -24 27 -26 37 -3 10 -10
40 -17 66 -9 33 -17 46 -26 43 -8 -3 -18 4 -24 14 -6 11 -14 20 -18 20 -4 0
-28 -21 -54 -46z"/>
<path d="M594 1041 c6 -10 1573 -8 1583 2 3 4 -352 7 -791 7 -440 0 -795 -4
-792 -9z"/>
<path d="M1985 1003 c-5 -10 -7 -24 -6 -30 1 -8 -10 -13 -29 -13 -25 0 -30 4
-30 25 0 14 -4 25 -10 25 -5 0 -10 -13 -10 -29 0 -37 -15 -48 -25 -18 -4 14
-8 17 -12 9 -8 -21 5 -42 27 -42 11 0 20 5 20 10 0 6 23 10 50 10 45 0 50 2
50 23 0 12 -4 28 -9 35 -6 11 -10 10 -16 -5z"/>
<path d="M870 1000 c10 -6 11 -10 3 -10 -19 0 -16 -27 3 -34 9 -3 49 -6 90 -6
70 0 74 1 74 23 -1 20 -2 21 -14 5 -15 -21 -42 -24 -50 -5 -5 10 -7 10 -12 0
-3 -7 -21 -13 -40 -13 -30 0 -34 3 -34 25 0 17 -5 25 -17 25 -15 0 -16 -2 -3
-10z"/>
<path d="M1240 985 c0 -29 -32 -35 -57 -10 -8 8 -20 12 -26 8 -7 -4 -4 -9 9
-14 13 -5 4 -8 -28 -8 -27 -1 -48 4 -48 9 0 6 -5 10 -11 10 -5 0 -8 -4 -4 -9
3 -5 -3 -12 -12 -14 -10 -3 28 -5 85 -6 l102 -1 0 30 c0 17 -2 30 -5 30 -3 0
-5 -11 -5 -25z"/>
<path d="M1260 980 c0 -16 5 -30 10 -30 6 0 10 14 10 30 0 17 -4 30 -10 30 -5
0 -10 -13 -10 -30z"/>
<path d="M1472 983 l3 -28 100 -5 c55 -3 136 -3 180 0 78 5 80 6 83 33 2 15
-1 27 -7 27 -6 0 -11 -11 -11 -25 0 -22 -4 -25 -34 -25 -30 0 -35 4 -39 28
l-4 27 -2 -27 c-1 -30 -27 -38 -49 -16 -9 9 -15 9 -24 0 -16 -16 -45 -15 -51
1 -4 9 -8 8 -16 -3 -10 -13 -11 -13 -11 0 0 12 -2 13 -9 1 -7 -11 -10 -11 -15
0 -5 11 -7 11 -12 2 -3 -7 -19 -13 -35 -13 -24 0 -29 4 -29 25 0 14 -5 25 -11
25 -6 0 -9 -12 -7 -27z"/>
<path d="M2061 983 l-1 -33 55 0 c41 0 55 4 55 14 0 23 -22 31 -35 13 -7 -10
-24 -17 -38 -17 -20 0 -27 6 -30 28 -4 25 -4 25 -6 -5z"/>
<path d="M803 980 c3 -10 0 -21 -7 -24 -6 -2 -1 -5 12 -5 23 -1 30 13 12 24
-6 4 -8 11 -5 16 4 5 1 9 -6 9 -6 0 -9 -8 -6 -20z"/>
<path d="M1313 973 c-13 -26 -5 -42 20 -43 12 0 8 18 -5 23 -7 2 13 2 45 -1
55 -4 57 -4 57 19 -1 22 -2 23 -14 7 -14 -20 -52 -23 -76 -8 -10 6 -11 10 -2
10 6 0 12 5 12 10 0 20 -25 9 -37 -17z"/>
<path d="M619 971 c-19 -16 -22 -22 -11 -32 10 -11 12 -10 12 2 0 18 62 18 68
0 5 -16 22 -13 22 3 0 9 7 12 20 9 13 -4 20 0 20 9 0 25 -11 28 -42 12 -25
-13 -30 -13 -44 1 -19 19 -17 19 -45 -4z"/>
<path d="M1449 970 c-3 -15 -13 -27 -29 -31 l-25 -7 28 -1 c29 -1 42 15 35 46
-4 14 -6 13 -9 -7z"/>
<path d="M2023 955 c-9 -20 -8 -25 2 -25 7 0 16 7 19 16 15 40 -3 47 -21 9z"/>
<path d="M609 905 c-5 -26 -1 -65 7 -64 5 0 8 8 6 17 -1 10 4 7 12 -8 l15 -25
10 25 c9 24 10 24 10 3 1 -38 21 -26 21 12 0 38 -25 50 -37 18 -5 -14 -8 -13
-14 5 -7 19 -27 31 -30 17z"/>
<path d="M830 893 c0 -33 12 -63 25 -63 13 0 25 30 25 65 0 23 -16 9 -23 -20
-4 -18 -5 -18 -6 2 -1 26 -21 42 -21 16z"/>
<path d="M907 903 c-28 -7 -19 -67 11 -71 12 -2 22 1 22 7 0 6 -8 11 -17 11
-15 0 -16 2 -3 10 13 9 13 11 0 20 -13 8 -12 10 3 10 9 0 17 5 17 10 0 10 -3
11 -33 3z"/>
<path d="M958 904 c-5 -4 -8 -22 -8 -41 0 -29 3 -33 25 -33 14 0 25 5 25 10 0
6 -6 10 -14 10 -9 0 -16 12 -18 31 -2 17 -6 27 -10 23z"/>
<path d="M1040 869 c0 -22 4 -38 9 -35 5 3 7 16 5 29 -3 16 -1 15 7 -6 12 -30
29 -28 29 4 0 11 -4 18 -9 15 -5 -3 -11 3 -14 14 -9 35 -27 22 -27 -21z"/>
<path d="M1278 903 c-13 -3 -18 -14 -18 -39 0 -30 3 -34 25 -34 14 0 25 5 25
10 0 6 -8 10 -17 10 -15 0 -16 2 -3 10 13 8 13 11 1 19 -11 7 -10 10 5 13 10
2 15 6 9 9 -5 3 -18 4 -27 2z"/>
<path d="M1430 888 c-1 -21 -2 -22 -14 -5 -20 26 -34 21 -32 -12 2 -37 16 -53
17 -20 l0 24 11 -22 c17 -35 38 -29 38 11 0 19 -4 38 -10 41 -6 3 -10 -4 -10
-17z"/>
<path d="M1490 869 c0 -22 5 -39 10 -39 6 0 10 6 10 14 0 8 7 16 15 20 24 9
17 33 -10 38 -23 5 -25 2 -25 -33z"/>
<path d="M1630 900 c-18 -11 -20 -48 -3 -61 21 -18 43 -3 43 30 0 31 -18 45
-40 31z"/>
<path d="M1700 881 c0 -16 -6 -31 -12 -34 -7 -2 -10 -8 -6 -12 4 -4 14 -5 23
-2 17 7 21 62 5 72 -6 4 -10 -6 -10 -24z"/>
<path d="M1748 902 c-13 -2 -18 -13 -18 -38 0 -30 3 -34 25 -34 28 0 35 20 8
21 -12 0 -13 2 -5 6 10 4 10 8 0 20 -10 13 -9 15 7 11 11 -2 20 -11 20 -20 0
-24 21 -42 39 -35 24 9 20 30 -4 22 -15 -5 -20 -2 -20 13 0 14 7 19 30 19 26
0 30 -4 30 -29 0 -15 5 -28 10 -28 6 0 10 14 10 30 0 36 4 37 38 8 15 -11 19
-18 10 -15 -10 3 -20 2 -23 -3 -6 -10 31 -24 44 -15 5 3 9 19 9 35 -1 27 -4
29 -42 29 -23 0 -58 2 -79 5 -20 2 -40 0 -43 -5 -3 -6 -11 -6 -17 -1 -7 5 -20
7 -29 4z"/>
<path d="M2000 870 c0 -33 3 -40 20 -40 11 0 20 5 20 10 0 6 -4 10 -10 10 -5
0 -10 14 -10 30 0 17 -4 30 -10 30 -5 0 -10 -18 -10 -40z"/>
<path d="M2056 898 c-14 -29 -3 -63 22 -66 12 -2 22 1 22 7 0 6 -6 11 -14 11
-9 0 -16 13 -18 33 -3 24 -6 28 -12 15z"/>
<path d="M2113 898 c-15 -20 0 -63 22 -63 10 0 20 6 23 14 3 9 -1 11 -17 6
-17 -5 -21 -2 -21 14 0 24 10 27 29 9 10 -11 12 -9 9 7 -4 23 -31 31 -45 13z"/>
<path d="M706 878 c-10 -38 -8 -54 6 -40 8 8 15 9 25 1 10 -9 13 -7 13 9 0 50
-32 72 -44 30z"/>
<path d="M765 870 c2 -34 15 -53 15 -24 1 18 1 18 14 2 19 -25 22 -23 23 17 1
32 -1 35 -27 35 -25 0 -27 -3 -25 -30z"/>
<path d="M1094 884 c3 -9 6 -24 6 -35 0 -10 5 -19 10 -19 6 0 10 16 10 35 0
25 -4 35 -16 35 -11 0 -14 -5 -10 -16z"/>
<path d="M1132 868 c2 -25 8 -33 23 -33 15 0 21 8 23 33 3 29 1 32 -23 32 -24
0 -26 -3 -23 -32z"/>
<path d="M1196 868 c1 -28 5 -33 25 -33 20 0 25 6 27 33 3 29 1 32 -25 32 -25
0 -28 -3 -27 -32z"/>
<path d="M1320 863 c1 -33 2 -36 13 -21 12 15 14 15 23 1 8 -13 10 -8 11 20 1
33 -2 37 -23 37 -21 0 -24 -4 -24 -37z"/>
<path d="M1550 865 c0 -19 5 -35 10 -35 6 0 10 8 10 17 0 15 1 15 13 -1 12
-17 14 -15 15 18 1 32 -1 36 -23 36 -22 0 -25 -4 -25 -35z"/>
</g>
</svg>
