<?xml version="1.0" standalone="no"?>
<!DOCTYPE svg PUBLIC "-//W3C//DTD SVG 20010904//EN"
 "http://www.w3.org/TR/2001/REC-SVG-20010904/DTD/svg10.dtd">
<svg version="1.0" xmlns="http://www.w3.org/2000/svg"
 width="175.000000pt" height="111.000000pt" viewBox="0 0 175.000000 111.000000"
 preserveAspectRatio="xMidYMid meet">
<metadata>
Created by potrace 1.10, written by Peter Selinger 2001-2011
</metadata>
<g transform="translate(0.000000,111.000000) scale(0.100000,-0.100000)"
fill="#000000" stroke="none">
<path d="M738 911 c-64 -15 -66 -16 -72 -49 -3 -19 -15 -45 -27 -58 -29 -31
-90 -33 -119 -4 l-21 21 -47 -33 c-81 -56 -82 -56 -71 -88 23 -65 -49 -143
-112 -121 -28 10 -30 8 -69 -50 -44 -67 -46 -75 -25 -103 33 -44 6 -127 -48
-146 -16 -5 -33 -8 -37 -5 -8 5 -30 -101 -30 -143 0 -12 8 -23 20 -27 10 -3
25 -22 32 -41 9 -25 18 -34 34 -34 20 0 23 7 29 63 14 137 81 312 157 410 102
133 248 233 398 274 88 23 272 23 358 0 152 -41 296 -139 400 -273 81 -105
150 -289 155 -411 2 -61 3 -63 30 -63 17 0 27 5 27 14 0 8 12 29 26 46 30 35
25 53 -7 24 -20 -18 -21 -18 -34 -1 -13 18 -13 18 -18 0 -3 -10 -5 11 -5 47 0
36 -2 78 -5 95 -4 27 -4 28 10 10 7 -11 16 -19 18 -17 17 8 36 0 31 -14 -3 -8
-2 -13 3 -9 5 3 12 -1 15 -7 3 -7 4 3 3 22 -1 23 -7 35 -17 35 -56 1 -97 58
-86 117 4 20 13 41 21 48 11 9 10 17 -8 48 -12 20 -27 43 -34 50 -7 7 -13 16
-13 20 -1 24 -18 32 -47 21 -25 -8 -38 -7 -62 5 -40 21 -53 48 -49 103 3 44 3
45 -57 87 l-59 43 -28 -20 c-58 -43 -133 -9 -144 65 -6 34 -10 38 -43 44 -20
3 -52 10 -71 15 -23 6 -36 5 -39 -2 -2 -6 -13 -22 -26 -37 -18 -21 -32 -27
-63 -27 -41 0 -82 26 -82 50 0 21 -21 22 -92 6z m351 -37 c14 -7 28 -11 32 -9
11 8 19 -37 9 -55 -7 -13 -17 -16 -37 -12 l-28 6 30 8 c20 5 12 6 -22 2 -33
-3 -53 -1 -53 6 0 5 -11 10 -25 10 -26 0 -33 14 -15 25 6 4 19 1 28 -7 15 -12
16 -11 3 5 -10 12 -11 21 -4 28 8 8 13 7 17 0 4 -6 17 -11 29 -10 l22 0 -22 9
c-13 5 -23 12 -23 14 0 6 24 -2 59 -20z m-262 -8 l21 -24 -24 -6 c-13 -4 -24
-11 -24 -17 0 -8 -5 -7 -15 1 -12 10 -15 10 -15 -1 0 -11 -2 -11 -10 1 -5 8
-10 10 -10 4 0 -16 -53 -25 -62 -11 -11 17 -10 22 10 44 35 40 98 45 129 9z
m-324 -99 c-4 -6 2 -8 17 -4 16 4 28 1 36 -11 10 -14 7 -19 -18 -34 -16 -10
-34 -15 -40 -12 -8 5 -9 1 -4 -11 5 -15 4 -16 -9 -5 -10 8 -15 9 -15 2 0 -14
-41 -52 -54 -51 -6 0 -5 3 2 6 6 2 12 9 12 14 0 6 -4 7 -10 4 -6 -4 -10 5 -10
19 0 14 5 26 11 26 5 0 8 4 4 9 -3 6 2 16 10 23 9 7 24 20 32 30 17 17 48 13
36 -5z m846 -3 c5 4 13 1 17 -5 5 -8 3 -9 -6 -4 -9 5 -11 4 -6 -3 4 -7 16 -12
26 -12 13 0 17 -5 14 -15 -4 -8 -2 -15 2 -15 5 0 10 -14 11 -30 3 -38 -15 -39
-52 -2 -16 15 -25 20 -20 12 4 -8 -2 -5 -13 7 -12 12 -31 24 -42 28 -21 7 -20
7 5 31 21 19 30 22 41 14 7 -7 18 -9 23 -6z m-1085 -213 c3 -4 16 -6 30 -4 13
3 27 0 30 -6 5 -7 1 -8 -9 -5 -9 4 -15 3 -13 -2 4 -14 -42 -104 -53 -104 -6 0
-8 -3 -6 -7 3 -5 -1 -13 -8 -20 -9 -9 -16 -4 -27 20 -16 33 -9 77 12 77 6 0 8
5 5 10 -3 6 0 13 9 16 8 3 12 12 9 20 -6 15 12 20 21 5z m1296 -1 c9 13 14 7
11 -12 0 -5 4 -8 9 -8 6 0 10 -7 10 -16 0 -8 4 -13 9 -9 6 3 8 -4 6 -15 -2
-11 0 -18 5 -15 5 3 11 1 15 -5 10 -15 -4 -50 -20 -50 -9 0 -12 -7 -9 -17 5
-16 4 -16 -10 1 -8 10 -13 23 -10 28 3 5 0 7 -8 6 -7 -2 -12 2 -11 8 1 7 -8
23 -20 36 -19 20 -21 30 -14 53 7 20 12 24 18 14 8 -12 11 -11 19 1z m-1384
-308 c-8 -21 -19 -64 -26 -96 l-12 -58 -23 22 c-16 15 -22 31 -21 53 2 18 4
40 5 49 0 11 6 15 16 12 8 -4 15 -2 15 4 0 6 -6 12 -12 15 -7 2 2 7 19 11 18
4 35 12 38 17 13 20 13 7 1 -29z"/>
<path d="M594 678 c-4 -7 -3 -8 4 -4 7 4 12 3 12 -3 0 -5 -4 -12 -10 -16 -5
-3 -7 -12 -4 -19 3 -9 -7 -19 -25 -27 -17 -8 -31 -17 -31 -21 0 -5 -6 -8 -14
-8 -8 0 -17 -7 -20 -16 -3 -8 -10 -13 -15 -9 -6 3 -13 -11 -17 -32 -17 -97
-20 -106 -38 -109 -33 -5 -46 -13 -46 -31 0 -34 15 -46 49 -38 31 6 31 8 16
25 -11 12 -13 20 -6 25 6 3 11 -1 11 -10 0 -9 4 -14 8 -11 5 3 9 37 10 77 0
40 5 76 10 81 5 5 7 -5 6 -24 -3 -31 -3 -31 6 -8 7 18 8 11 4 -29 -5 -41 -3
-52 6 -46 10 6 12 1 8 -17 -4 -22 -2 -25 16 -20 38 9 52 29 48 67 -4 30 -9 37
-33 42 -32 6 -34 11 -18 45 8 19 93 78 112 78 8 0 67 -118 67 -135 0 -9 5 -13
10 -10 12 7 12 3 4 -19 -9 -22 -24 -10 -24 20 0 33 -22 30 -43 -7 -13 -24 -15
-35 -6 -45 17 -20 73 -17 93 5 19 21 17 27 -27 131 -8 19 -20 52 -27 72 -6 21
-16 40 -21 43 -15 10 -10 -13 11 -55 30 -58 24 -62 -11 -7 -29 43 -33 46 -45
30 -8 -11 -13 -13 -14 -6 0 7 9 18 20 25 11 7 20 16 20 20 0 13 -48 9 -56 -4z
m-26 -212 c3 -11 0 -16 -7 -12 -7 5 -8 1 -4 -10 4 -12 2 -15 -8 -12 -8 2 -15
17 -17 32 -3 22 0 27 15 24 10 -2 19 -12 21 -22z"/>
<path d="M516 619 c-12 -10 -18 -20 -14 -24 4 -4 14 0 23 9 9 9 23 16 30 16 8
0 16 4 20 9 9 16 -37 8 -59 -10z"/>
<path d="M1115 464 c-88 -82 -113 -99 -101 -69 8 21 -19 31 -94 38 -72 5 -90
2 -90 -18 0 -7 -11 -16 -25 -19 -16 -4 -23 -11 -19 -18 5 -8 1 -9 -12 -4 -35
14 -138 20 -130 8 4 -6 20 -10 37 -8 35 4 45 -7 24 -27 -19 -19 -19 -33 -1
-40 10 -4 18 5 26 29 11 31 30 47 30 24 0 -6 18 -7 44 -4 24 4 46 2 48 -2 3
-5 2 -33 -2 -62 -4 -37 -3 -58 6 -70 12 -15 14 -12 15 26 2 56 3 59 13 69 5 4
6 3 2 -4 -3 -6 -2 -14 4 -18 5 -3 10 -12 10 -18 0 -7 -4 -6 -10 3 -7 11 -10 7
-10 -17 0 -26 5 -34 25 -39 14 -3 23 -10 20 -14 -8 -13 74 -5 88 9 10 10 6 11
-18 6 -34 -7 -16 8 24 20 18 6 22 4 16 -6 -5 -8 4 -3 19 11 14 13 24 30 21 38
-3 9 1 12 14 7 12 -4 31 7 61 35 23 22 48 40 54 40 6 0 17 9 24 20 7 12 8 20
2 20 -5 0 -10 -4 -10 -10 0 -5 -12 -10 -26 -10 -14 0 -23 4 -20 8 2 4 -11 6
-30 4 -37 -5 -58 -22 -25 -22 28 0 52 -11 45 -21 -6 -11 -61 -11 -88 0 -17 6
-15 11 20 39 30 25 34 32 19 32 -18 0 -18 1 -3 16 13 13 20 14 37 4 12 -6 19
-15 16 -20 -3 -6 1 -7 9 -4 9 3 16 1 16 -5 0 -6 11 -8 28 -5 15 2 32 1 39 -3
14 -10 38 -221 29 -258 -4 -14 -18 -35 -31 -47 -25 -22 -33 -48 -15 -48 6 0
10 6 10 14 0 17 39 48 52 40 4 -3 8 0 8 5 0 6 -4 11 -9 11 -4 0 -6 11 -3 25 2
14 8 23 12 20 4 -3 11 2 14 11 9 22 8 26 -6 18 -7 -4 -8 -3 -4 4 11 18 23 14
29 -7 5 -22 -11 -54 -24 -46 -5 4 -9 -1 -9 -9 0 -9 5 -16 10 -16 6 0 10 -12
11 -27 1 -21 4 -16 11 17 5 25 14 49 19 55 12 12 12 28 0 21 -5 -3 -8 6 -8 19
0 14 3 25 8 25 5 0 9 -5 9 -11 0 -5 5 -7 12 -3 8 5 9 2 5 -10 -4 -10 -3 -15 3
-11 17 10 11 -62 -6 -80 -9 -9 -13 -19 -10 -23 7 -6 21 10 29 33 7 16 19 -2
21 -29 1 -26 11 -35 18 -17 2 5 11 3 22 -4 25 -19 12 -35 -29 -35 -19 0 -37
-5 -41 -12 -5 -8 0 -9 17 -5 13 4 43 7 67 7 53 0 55 16 5 50 -40 28 -56 60
-79 158 -27 119 -57 211 -67 205 -6 -4 -8 1 -4 10 3 10 2 17 -2 17 -5 0 -11
-6 -14 -12 -3 -9 -9 -7 -19 6 -14 17 -15 17 -21 2 -4 -10 -3 -15 3 -11 6 3 13
-1 16 -9 3 -8 15 -18 27 -22 l22 -7 -23 -8 c-13 -5 -20 -14 -17 -20 4 -6 13
-8 20 -5 17 6 39 -37 32 -64 -3 -13 0 -23 9 -27 16 -6 20 -53 4 -53 -5 0 -10
5 -10 12 0 6 -11 -2 -25 -18 -13 -15 -27 -25 -31 -21 -4 4 -2 13 4 19 7 7 12
27 12 46 0 19 4 31 10 27 6 -3 10 -1 10 4 0 6 -7 11 -15 11 -9 0 -15 10 -16
23 0 12 -3 16 -6 9 -2 -6 -9 -9 -14 -6 -6 4 -6 10 0 18 7 8 4 19 -12 37 -12
13 -23 35 -24 49 -5 48 -14 70 -27 70 -8 0 -16 4 -18 9 -1 5 -43 -28 -93 -75z
m85 32 c0 -8 7 -16 15 -20 27 -10 16 -26 -19 -26 -34 0 -35 0 -25 30 11 31 29
41 29 16z m-260 -95 c0 -11 -4 -23 -10 -26 -5 -3 -10 -14 -10 -23 0 -13 5 -12
20 8 11 14 20 31 20 38 0 6 9 12 20 12 16 0 20 -7 20 -30 0 -16 -4 -30 -10
-30 -5 0 -10 -6 -10 -12 0 -9 -16 -12 -54 -10 l-54 4 -4 44 -3 44 37 0 c31 0
38 -4 38 -19z m128 -61 c15 0 34 -5 42 -10 11 -7 0 -10 -37 -10 -51 0 -53 1
-53 28 1 23 2 24 11 10 5 -10 22 -18 37 -18z m239 -51 c1 -22 -2 -37 -8 -34
-5 4 -9 25 -9 47 0 52 14 41 17 -13z m-367 9 c0 -9 4 -8 11 2 8 12 9 9 5 -12
-5 -23 -3 -28 14 -28 11 0 20 -3 20 -7 0 -14 -49 -31 -70 -26 -21 6 -27 29
-10 35 6 2 12 13 13 26 1 23 17 32 17 10z m100 2 c14 -4 18 -9 10 -9 -11 -1
-12 -3 -3 -9 8 -5 -2 -8 -25 -9 -46 -1 -56 5 -41 23 13 15 22 16 59 4z"/>
<path d="M1287 534 c-12 -12 -8 -24 7 -24 8 0 17 -6 20 -12 3 -7 4 -2 3 11 -2
25 -18 37 -30 25z"/>
<path d="M600 385 c0 -10 -10 -15 -27 -15 l-28 -1 31 -13 c18 -8 35 -19 38
-25 10 -15 -17 -14 -32 1 -9 9 -12 9 -12 -3 0 -23 -48 -22 -55 1 -7 21 -14 24
-39 14 -14 -5 -13 -9 4 -31 14 -19 20 -41 20 -80 0 -30 7 -68 16 -85 10 -19
12 -33 6 -37 -10 -6 -15 -25 -13 -49 1 -10 25 -12 99 -11 55 1 104 -1 110 -5
7 -4 17 -4 23 0 7 4 44 8 83 9 144 4 136 3 136 30 0 14 -5 25 -11 25 -5 0 -8
-4 -5 -9 7 -11 -31 -22 -50 -14 -12 4 -11 8 3 18 10 7 21 11 25 9 5 -3 8 2 8
11 0 9 12 27 28 40 l27 24 -52 1 c-28 0 -59 3 -68 6 -9 4 -15 2 -13 -3 2 -5
-14 -24 -35 -43 -34 -30 -41 -32 -59 -21 -18 11 -20 11 -14 -4 3 -9 6 -21 6
-27 0 -7 4 -7 13 0 18 16 120 32 132 21 9 -9 6 -10 -47 -13 -15 -1 -31 -6 -35
-11 -4 -4 0 -5 10 -2 9 4 17 2 17 -3 0 -12 -48 -25 -58 -16 -3 4 0 11 8 16 13
8 12 10 -2 10 -10 0 -18 -4 -18 -10 0 -5 -7 -10 -15 -10 -8 0 -15 8 -15 18 0
14 -4 12 -21 -8 -20 -25 -21 -25 -16 -2 7 30 -18 42 -68 32 l-40 -8 38 -1 c26
-1 37 -6 37 -16 0 -12 -10 -15 -42 -13 -24 1 -53 -1 -65 -5 -18 -6 -23 -5 -23
7 0 11 9 16 26 16 19 0 25 4 21 14 -5 12 9 16 64 22 39 4 77 13 85 21 14 14
15 13 18 -6 2 -20 16 -23 31 -7 15 15 12 21 -8 17 -5 -1 -6 3 -2 9 3 5 12 10
20 10 19 0 46 29 39 42 -4 7 -9 7 -13 0 -3 -5 -28 -13 -55 -17 -45 -7 -48 -6
-42 13 4 11 2 23 -4 27 -5 3 -10 -1 -10 -9 0 -9 -3 -15 -7 -14 -5 0 -37 -2
-73 -7 -50 -6 -59 -10 -42 -16 28 -11 29 -33 2 -26 -17 4 -20 2 -15 -14 8 -25
-22 -26 -41 -2 -24 32 -17 61 16 68 16 4 34 4 40 0 5 -3 10 -2 10 4 0 5 -6 11
-12 14 -7 2 15 10 50 18 44 9 62 18 62 29 0 9 -3 11 -8 5 -10 -14 -92 -35 -92
-23 0 5 -11 -2 -25 -16 -28 -28 -60 -25 -62 5 -1 10 2 19 8 19 5 0 9 -8 10
-17 1 -12 4 -9 8 7 4 14 14 24 21 22 26 -6 120 21 120 35 0 7 -6 13 -14 13 -7
0 -19 14 -26 30 -13 31 -40 41 -40 15z m290 -214 c0 -4 12 -6 28 -3 l27 5 -23
-19 c-17 -14 -35 -19 -60 -16 l-35 5 24 18 c26 20 39 24 39 10z"/>
<path d="M763 330 c-14 -6 -23 -18 -23 -30 0 -17 4 -19 28 -14 35 9 39 13 22
24 -10 7 -11 10 -2 10 6 0 12 5 12 10 0 12 -7 12 -37 0z"/>
<path d="M1250 48 c0 -5 29 -8 65 -8 36 0 65 3 65 8 0 4 -29 7 -65 7 -36 0
-65 -3 -65 -7z"/>
</g>
</svg>
